<svg width="77" height="56" viewBox="0 0 77 56" fill="none" xmlns="http://www.w3.org/2000/svg">
<g clip-path="url(#clip0_70_6666)">
<path d="M7.66109 27.1377L7.35866 20.8545L18.6147 8.99368H24.6627L14.5154 19.9137L11.4914 23.1393L7.66109 27.1377ZM2.78906 32.5137V8.99368H8.19868V32.5137H2.78906ZM18.8834 32.5137L10.5171 22.2657L14.0787 18.4017L25.2338 32.5137H18.8834Z" fill="white"/>
<path d="M48.631 8.98947H30.9468L29.4731 13.1158H47.0099L48.631 8.98947Z" fill="#253E8E"/>
<path d="M48.631 18.5684H30.9468L29.4731 22.6947H47.0099L48.631 18.5684Z" fill="#253E8E"/>
<path d="M48.631 28.2948H30.9468L29.4731 32.4211H47.0099L48.631 28.2948Z" fill="#253E8E"/>
<path d="M61.6876 32.5137V22.9041L62.9308 26.1968L52.582 8.99368H58.3612L66.2908 22.1985H62.9644L70.9276 8.99368H76.27L65.9212 26.1968L67.1308 22.9041V32.5137H61.6876Z" fill="white"/>
<path d="M5.71289 52.903V44.2892H9.07226C9.82704 44.2892 10.471 44.4081 11.0042 44.6461C11.5375 44.884 11.9476 45.2285 12.2347 45.6797C12.5219 46.1309 12.6654 46.6683 12.6654 47.2918C12.6654 47.9152 12.5219 48.4525 12.2347 48.9037C11.9476 49.3467 11.5375 49.6913 11.0042 49.9374C10.471 50.1753 9.82704 50.2943 9.07226 50.2943H6.3897L6.94344 49.7159V52.903H5.71289ZM6.94344 49.8389L6.3897 49.2237H9.03539C9.82291 49.2237 10.4176 49.0555 10.8197 48.7191C11.2298 48.3828 11.4349 47.907 11.4349 47.2918C11.4349 46.6764 11.2298 46.2007 10.8197 45.8643C10.4176 45.5279 9.82291 45.3598 9.03539 45.3598H6.3897L6.94344 44.7445V49.8389ZM20.2568 52.903V44.2892H23.6162C24.371 44.2892 25.0149 44.4081 25.5482 44.6461C26.0814 44.884 26.4916 45.2285 26.7787 45.6797C27.0659 46.1309 27.2094 46.6683 27.2094 47.2918C27.2094 47.9152 27.0659 48.4525 26.7787 48.9037C26.4916 49.3467 26.0814 49.6872 25.5482 49.9251C25.0149 50.163 24.371 50.2819 23.6162 50.2819H20.9336L21.4874 49.7159V52.903H20.2568ZM26.0158 52.903L23.8254 49.7774H25.1421L27.357 52.903H26.0158ZM21.4874 49.8389L20.9336 49.236H23.5793C24.3668 49.236 24.9616 49.0678 25.3636 48.7315C25.7737 48.3869 25.9788 47.907 25.9788 47.2918C25.9788 46.6764 25.7737 46.2007 25.3636 45.8643C24.9616 45.5279 24.3668 45.3598 23.5793 45.3598H20.9336L21.4874 44.7445V49.8389ZM38.8695 53.0015C38.2132 53.0015 37.6021 52.8907 37.036 52.6692C36.4782 52.4477 35.9942 52.14 35.584 51.7463C35.1738 51.3443 34.8539 50.8767 34.6242 50.3435C34.3944 49.8102 34.2796 49.2278 34.2796 48.5961C34.2796 47.9644 34.3944 47.382 34.6242 46.8487C34.8539 46.3155 35.1738 45.852 35.584 45.4582C35.9942 45.0563 36.4782 44.7445 37.036 44.523C37.5939 44.3015 38.205 44.1908 38.8695 44.1908C39.5259 44.1908 40.1288 44.3015 40.6784 44.523C41.2363 44.7363 41.7203 45.044 42.1305 45.4459C42.5489 45.8397 42.8688 46.3032 43.0903 46.8364C43.32 47.3696 43.4348 47.9562 43.4348 48.5961C43.4348 49.236 43.32 49.8225 43.0903 50.3558C42.8688 50.889 42.5489 51.3566 42.1305 51.7586C41.7203 52.1524 41.2363 52.46 40.6784 52.6815C40.1288 52.8948 39.5259 53.0015 38.8695 53.0015ZM38.8695 51.9062C39.3454 51.9062 39.7842 51.8242 40.1862 51.6601C40.5964 51.496 40.9492 51.2664 41.2445 50.9711C41.5481 50.6675 41.7818 50.3148 41.9459 49.9127C42.1181 49.5108 42.2043 49.0719 42.2043 48.5961C42.2043 48.1203 42.1181 47.6814 41.9459 47.2794C41.7818 46.8774 41.5481 46.5288 41.2445 46.2335C40.9492 45.9299 40.5964 45.6961 40.1862 45.532C39.7842 45.3679 39.3454 45.2859 38.8695 45.2859C38.3855 45.2859 37.9384 45.3679 37.5282 45.532C37.1263 45.6961 36.7735 45.9299 36.47 46.2335C36.1665 46.5288 35.9285 46.8774 35.7563 47.2794C35.5922 47.6814 35.5102 48.1203 35.5102 48.5961C35.5102 49.0719 35.5922 49.5108 35.7563 49.9127C35.9285 50.3148 36.1665 50.6675 36.47 50.9711C36.7735 51.2664 37.1263 51.496 37.5282 51.6601C37.9384 51.8242 38.3855 51.9062 38.8695 51.9062ZM49.6547 52.903L53.2355 48.0178V48.9653L49.8516 44.2892H51.2543L53.9369 47.9685L53.3832 47.9808L56.0535 44.2892H57.3947L54.0354 48.8914V48.0054L57.6162 52.903H56.2012L53.3463 48.9776H53.8877L51.0698 52.903H49.6547ZM66.5571 52.903V49.6051L66.8402 50.3681L63.1362 44.2892H64.4529L67.5662 49.4206H66.8524L69.978 44.2892H71.1962L67.5046 50.3681L67.7753 49.6051V52.903H66.5571Z" fill="white"/>
<path d="M1.91553 37.4316H75.4524" stroke="#828282" stroke-width="0.294737"/>
</g>
<defs>
<clipPath id="clip0_70_6666">
<rect width="76.2732" height="56" fill="white"/>
</clipPath>
</defs>
</svg>
