<svg width="40" height="40" viewBox="0 0 40 40" fill="none" xmlns="http://www.w3.org/2000/svg">
<path d="M35.8843 12.1343L15.8843 32.1343C15.7682 32.2506 15.6304 32.3428 15.4786 32.4057C15.3269 32.4686 15.1642 32.5009 15 32.5009C14.8357 32.5009 14.673 32.4686 14.5213 32.4057C14.3695 32.3428 14.2317 32.2506 14.1156 32.1343L5.36559 23.3843C5.13104 23.1498 4.99927 22.8317 4.99927 22.5C4.99927 22.1683 5.13104 21.8501 5.36559 21.6156C5.60014 21.381 5.91826 21.2493 6.24996 21.2493C6.58167 21.2493 6.89979 21.381 7.13434 21.6156L15 29.4828L34.1156 10.3656C34.3501 10.131 34.6683 9.99927 35 9.99927C35.3317 9.99927 35.6498 10.131 35.8843 10.3656C36.1189 10.6001 36.2507 10.9183 36.2507 11.25C36.2507 11.5817 36.1189 11.8998 35.8843 12.1343Z" fill="white"/>
</svg>
