<svg width="40" height="40" viewBox="0 0 40 40" fill="none" xmlns="http://www.w3.org/2000/svg">
<path d="M37.5 12.5V23.75C37.5 24.0815 37.3683 24.3995 37.1338 24.6339C36.8994 24.8683 36.5815 25 36.25 25C35.9184 25 35.6005 24.8683 35.3661 24.6339C35.1317 24.3995 35 24.0815 35 23.75V15.5172L19.6343 30.8844C19.5182 31.0006 19.3804 31.0928 19.2286 31.1557C19.0769 31.2186 18.9142 31.251 18.75 31.251C18.5857 31.251 18.423 31.2186 18.2713 31.1557C18.1195 31.0928 17.9817 31.0006 17.8656 30.8844L2.86559 15.8844C2.63104 15.6498 2.49927 15.3317 2.49927 15C2.49927 14.6683 2.63104 14.3502 2.86559 14.1156C3.10014 13.8811 3.41826 13.7493 3.74996 13.7493C4.08167 13.7493 4.39979 13.8811 4.63434 14.1156L18.75 28.2328L33.2328 13.75H25C24.6684 13.75 24.3505 13.6183 24.1161 13.3839C23.8817 13.1495 23.75 12.8315 23.75 12.5C23.75 12.1685 23.8817 11.8505 24.1161 11.6161C24.3505 11.3817 24.6684 11.25 25 11.25H36.25C36.5815 11.25 36.8994 11.3817 37.1338 11.6161C37.3683 11.8505 37.5 12.1685 37.5 12.5Z" fill="white"/>
</svg>
