<svg width="40" height="40" viewBox="0 0 40 40" fill="none" xmlns="http://www.w3.org/2000/svg">
<path d="M34.9765 7.36239C34.9394 6.7529 34.6806 6.17804 34.2489 5.74627C33.8171 5.3145 33.2422 5.05568 32.6327 5.01864C30.6671 4.90146 25.6437 5.08114 21.4749 9.24833L20.7327 9.99989H11.6187C11.2891 9.99804 10.9625 10.0617 10.6577 10.1873C10.353 10.3128 10.0763 10.4977 9.84367 10.7311L4.4843 16.0936C4.15562 16.4221 3.92499 16.8356 3.81828 17.2879C3.71157 17.7401 3.73301 18.2132 3.88019 18.6539C4.02738 19.0946 4.29447 19.4856 4.65151 19.783C5.00855 20.0804 5.4414 20.2723 5.90149 20.3374L11.9124 21.1765L18.8202 28.0843L19.6593 34.0983C19.7238 34.5584 19.9158 34.9913 20.2134 35.3481C20.5111 35.7048 20.9026 35.9712 21.3437 36.1171C21.6006 36.2029 21.8697 36.2467 22.1405 36.2468C22.4685 36.2474 22.7934 36.1831 23.0964 36.0576C23.3995 35.9321 23.6747 35.7479 23.9062 35.5155L29.2687 30.1561C29.5021 29.9235 29.687 29.6468 29.8126 29.3421C29.9381 29.0374 30.0018 28.7107 29.9999 28.3811V19.2671L30.7452 18.5218C34.914 14.353 35.0937 9.32958 34.9765 7.36239ZM11.6187 12.4999H18.2327L12.0562 18.6749L6.24992 17.8655L11.6187 12.4999ZM23.2452 11.0233C24.4464 9.8148 25.8916 8.87647 27.4843 8.27102C29.077 7.66557 30.7805 7.40693 32.4812 7.51239C32.5907 9.21392 32.3348 10.9192 31.7305 12.5136C31.1263 14.108 30.1878 15.5546 28.9781 16.7561L19.9999 25.7311L14.2687 19.9999L23.2452 11.0233ZM27.4999 28.3811L22.1359 33.7499L21.3249 27.9421L27.4999 21.7671V28.3811ZM15.9124 29.8655C15.2093 31.4061 12.8577 34.9999 6.24992 34.9999C5.9184 34.9999 5.60046 34.8682 5.36604 34.6338C5.13162 34.3994 4.99992 34.0814 4.99992 33.7499C4.99992 27.1421 8.59367 24.7905 10.1343 24.0858C10.2837 24.0177 10.445 23.9797 10.6091 23.9739C10.7732 23.9681 10.9368 23.9947 11.0906 24.0522C11.2444 24.1096 11.3853 24.1968 11.5054 24.3088C11.6255 24.4207 11.7224 24.5552 11.7905 24.7046C11.8587 24.854 11.8967 25.0153 11.9025 25.1794C11.9083 25.3434 11.8817 25.5071 11.8242 25.6609C11.7667 25.8147 11.6796 25.9556 11.5676 26.0757C11.4557 26.1958 11.3212 26.2927 11.1718 26.3608C10.1671 26.8186 7.94992 28.2921 7.5593 32.4405C11.7077 32.0499 13.1843 29.8327 13.639 28.828C13.7071 28.6786 13.804 28.5441 13.9241 28.4322C14.0442 28.3203 14.1852 28.2331 14.339 28.1756C14.4928 28.1182 14.6564 28.0916 14.8204 28.0973C14.9845 28.1031 15.1459 28.1411 15.2952 28.2093C15.4446 28.2774 15.5791 28.3743 15.6911 28.4944C15.803 28.6145 15.8902 28.7554 15.9476 28.9092C16.0051 29.063 16.0317 29.2267 16.0259 29.3907C16.0201 29.5548 15.9821 29.7161 15.914 29.8655H15.9124Z" fill="white"/>
</svg>
