<svg width="40" height="40" viewBox="0 0 40 40" fill="none" xmlns="http://www.w3.org/2000/svg">
<path d="M36.0797 26.8751C36.2448 27.1616 36.2896 27.5019 36.2044 27.8214C36.1192 28.1409 35.9109 28.4136 35.625 28.5798L20.625 37.3298C20.4339 37.4413 20.2166 37.5 19.9953 37.5C19.7741 37.5 19.5568 37.4413 19.3656 37.3298L4.36563 28.5798C4.0839 28.4105 3.88018 28.1371 3.79859 27.8187C3.717 27.5003 3.7641 27.1626 3.92969 26.8786C4.09528 26.5947 4.36603 26.3874 4.68333 26.3017C5.00062 26.2159 5.33893 26.2586 5.625 26.4204L20 34.8032L34.375 26.4204C34.6615 26.2553 35.0018 26.2105 35.3212 26.2957C35.6407 26.3809 35.9135 26.5893 36.0797 26.8751ZM34.375 18.9204L20 27.3032L5.625 18.9204C5.34038 18.7787 5.01246 18.7508 4.70798 18.8423C4.40349 18.9339 4.14534 19.138 3.98605 19.4132C3.82676 19.6883 3.77832 20.0139 3.85058 20.3235C3.92284 20.6331 4.11037 20.9036 4.375 21.0798L19.375 29.8298C19.5661 29.9413 19.7834 30 20.0047 30C20.2259 30 20.4432 29.9413 20.6344 29.8298L35.6344 21.0798C35.7784 20.9983 35.9049 20.889 36.0064 20.7582C36.1079 20.6274 36.1824 20.4778 36.2255 20.318C36.2687 20.1582 36.2798 19.9914 36.258 19.8273C36.2362 19.6632 36.182 19.5051 36.0986 19.3621C36.0152 19.2191 35.9043 19.0941 35.7722 18.9944C35.6401 18.8946 35.4895 18.8221 35.3291 18.781C35.1688 18.7399 35.0019 18.7311 34.8381 18.755C34.6743 18.7789 34.5169 18.8352 34.375 18.9204ZM3.75 12.5001C3.7505 12.2812 3.80849 12.0662 3.91818 11.8767C4.02786 11.6873 4.18539 11.5299 4.375 11.4204L19.375 2.67043C19.5661 2.55897 19.7834 2.50024 20.0047 2.50024C20.2259 2.50024 20.4432 2.55897 20.6344 2.67043L35.6344 11.4204C35.8231 11.5305 35.9796 11.6881 36.0884 11.8776C36.1972 12.067 36.2545 12.2817 36.2545 12.5001C36.2545 12.7186 36.1972 12.9332 36.0884 13.1227C35.9796 13.3121 35.8231 13.4697 35.6344 13.5798L20.6344 22.3298C20.4432 22.4413 20.2259 22.5 20.0047 22.5C19.7834 22.5 19.5661 22.4413 19.375 22.3298L4.375 13.5798C4.18539 13.4703 4.02786 13.313 3.91818 13.1235C3.80849 12.934 3.7505 12.7191 3.75 12.5001ZM7.48125 12.5001L20 19.8032L32.5187 12.5001L20 5.19699L7.48125 12.5001Z" fill="white"/>
</svg>
