<svg width="20" height="20" viewBox="0 0 20 20" fill="none" xmlns="http://www.w3.org/2000/svg">
<path d="M18.0407 16.5626C16.8508 14.5055 15.0172 13.0305 12.8774 12.3313C13.9358 11.7012 14.7582 10.741 15.2182 9.59833C15.6781 8.45561 15.7503 7.19349 15.4235 6.0058C15.0968 4.81811 14.3892 3.77051 13.4094 3.0239C12.4296 2.27728 11.2318 1.87292 10 1.87292C8.76821 1.87292 7.57044 2.27728 6.59067 3.0239C5.6109 3.77051 4.90331 4.81811 4.57654 6.0058C4.24978 7.19349 4.32193 8.45561 4.78189 9.59833C5.24186 10.741 6.06422 11.7012 7.12268 12.3313C4.98284 13.0297 3.14925 14.5047 1.9594 16.5626C1.91577 16.6337 1.88683 16.7129 1.87429 16.7954C1.86174 16.8779 1.86585 16.9621 1.88638 17.043C1.9069 17.1239 1.94341 17.1998 1.99377 17.2664C2.04413 17.333 2.10731 17.3888 2.17958 17.4305C2.25185 17.4722 2.33175 17.4991 2.41457 17.5095C2.49738 17.5198 2.58143 17.5135 2.66176 17.4909C2.74209 17.4682 2.81708 17.4297 2.88228 17.3776C2.94749 17.3255 3.00161 17.2609 3.04143 17.1876C4.51331 14.6438 7.11487 13.1251 10 13.1251C12.8852 13.1251 15.4867 14.6438 16.9586 17.1876C16.9985 17.2609 17.0526 17.3255 17.1178 17.3776C17.183 17.4297 17.258 17.4682 17.3383 17.4909C17.4186 17.5135 17.5027 17.5198 17.5855 17.5095C17.6683 17.4991 17.7482 17.4722 17.8205 17.4305C17.8927 17.3888 17.9559 17.333 18.0063 17.2664C18.0566 17.1998 18.0932 17.1239 18.1137 17.043C18.1342 16.9621 18.1383 16.8779 18.1258 16.7954C18.1132 16.7129 18.0843 16.6337 18.0407 16.5626ZM5.62503 7.50005C5.62503 6.63476 5.88162 5.7889 6.36235 5.06943C6.84308 4.34997 7.52636 3.78921 8.32579 3.45808C9.12522 3.12694 10.0049 3.0403 10.8535 3.20911C11.7022 3.37792 12.4818 3.7946 13.0936 4.40646C13.7055 5.01831 14.1222 5.79786 14.291 6.64653C14.4598 7.4952 14.3731 8.37486 14.042 9.17429C13.7109 9.97372 13.1501 10.657 12.4306 11.1377C11.7112 11.6185 10.8653 11.8751 10 11.8751C8.84009 11.8738 7.72801 11.4125 6.90781 10.5923C6.0876 9.77207 5.62627 8.65999 5.62503 7.50005Z" fill="white"/>
</svg>
